<?xml version="1.0" encoding="UTF-8" standalone="no"?>
<!-- Created with Inkscape (http://www.inkscape.org/) -->

<svg
   width="64"
   height="64"
   viewBox="0 0 16.933333 16.933333"
   version="1.1"
   id="svg5"
   inkscape:version="1.1.1 (3bf5ae0d25, 2021-09-20)"
   sodipodi:docname="logo.svg"
   xmlns:inkscape="http://www.inkscape.org/namespaces/inkscape"
   xmlns:sodipodi="http://sodipodi.sourceforge.net/DTD/sodipodi-0.dtd"
   xmlns="http://www.w3.org/2000/svg"
   xmlns:svg="http://www.w3.org/2000/svg">
  <sodipodi:namedview
     id="namedview7"
     pagecolor="#505050"
     bordercolor="#eeeeee"
     borderopacity="1"
     inkscape:pageshadow="0"
     inkscape:pageopacity="0"
     inkscape:pagecheckerboard="0"
     inkscape:document-units="px"
     showgrid="true"
     units="px"
     showguides="false"
     inkscape:zoom="4.1763188"
     inkscape:cx="28.613716"
     inkscape:cy="33.642068"
     inkscape:window-width="1366"
     inkscape:window-height="745"
     inkscape:window-x="-8"
     inkscape:window-y="-8"
     inkscape:window-maximized="1"
     inkscape:current-layer="layer1">
    <sodipodi:guide
       position="0,16.933333"
       orientation="0,64"
       id="guide826" />
    <sodipodi:guide
       position="16.933333,16.933333"
       orientation="64,0"
       id="guide828" />
    <sodipodi:guide
       position="16.933333,0"
       orientation="0,-64"
       id="guide830" />
    <sodipodi:guide
       position="0,0"
       orientation="-64,0"
       id="guide832" />
    <inkscape:grid
       type="xygrid"
       id="grid834"
       enabled="false"
       dotted="false"
       empspacing="8"
       visible="true" />
  </sodipodi:namedview>
  <defs
     id="defs2">
    <inkscape:perspective
       sodipodi:type="inkscape:persp3d"
       inkscape:vp_x="0 : 526.18109 : 1"
       inkscape:vp_y="0 : 1000 : 0"
       inkscape:vp_z="744.09448 : 526.18109 : 1"
       inkscape:persp3d-origin="372.04724 : 350.78739 : 1"
       id="perspective10" />
    <inkscape:perspective
       id="perspective2824"
       inkscape:persp3d-origin="0.5 : 0.33333333 : 1"
       inkscape:vp_z="1 : 0.5 : 1"
       inkscape:vp_y="0 : 1000 : 0"
       inkscape:vp_x="0 : 0.5 : 1"
       sodipodi:type="inkscape:persp3d" />
    <inkscape:perspective
       id="perspective2838"
       inkscape:persp3d-origin="0.5 : 0.33333333 : 1"
       inkscape:vp_z="1 : 0.5 : 1"
       inkscape:vp_y="0 : 1000 : 0"
       inkscape:vp_x="0 : 0.5 : 1"
       sodipodi:type="inkscape:persp3d" />
  </defs>
  <g
     inkscape:label="Layer 1"
     inkscape:groupmode="layer"
     id="layer1">
    <path
       style="fill:#ffffff;stroke:#000000;stroke-width:0.264583px;stroke-linecap:butt;stroke-linejoin:miter;stroke-opacity:1"
       d="M 14.816666,15.875 H 2.1166668 L 4.2333332,2.1166666 8.4666665,1.0583333 12.7,2.1166666 Z"
       id="path871"
       sodipodi:nodetypes="cccccc" />
    <path
       style="fill:#000000;fill-opacity:1;stroke:#000000;stroke-width:0.0696533px;stroke-linecap:butt;stroke-linejoin:miter;stroke-opacity:1"
       d="m 5.454053,15.716911 c 0.6279687,-0.0075 1.2594689,-0.01747 1.8804677,-0.09158 0.202213,0.02012 0.5589039,0.2085 0.6188498,-0.08791 0.051233,-0.241503 -0.1278856,-0.449419 -0.049729,-0.706498 0.031,-0.604868 0.1174714,-1.218672 0.3541806,-1.778267 0.3061244,-0.07174 0.6908083,-0.02217 1.027153,-0.04724 0.3285387,-0.02946 0.2907921,-0.307351 0.286427,-0.5626 0.022644,-0.670202 -0.00115,-1.345512 0.1744853,-1.998899 C 10.005499,9.1239725 10.339866,7.8197665 10.603409,6.5003066 11.207639,5.9249511 11.848262,5.3836535 12.344256,4.7070102 12.830053,4.132632 13.222817,3.4817223 13.79102,2.9798624 14.002094,2.8356779 13.989267,2.554915 14.244487,2.4567235 14.519802,2.2364073 14.800815,2.0266078 15.14952,1.9417574 15.409755,1.6826563 15.76933,1.4399799 15.852163,1.0762028 15.717768,0.385868 14.863284,0.9312897 14.602707,1.2894762 14.06022,1.7826219 13.35496,1.943991 12.7,2.1166666 12.309137,2.4369056 11.880439,2.7337319 11.575378,3.1355427 11.378581,3.5699132 10.877411,3.6414679 10.561431,3.9536142 10.295377,4.1384345 9.9613835,4.2048116 9.7016504,4.4418073 9.2692582,5.0447479 8.584447,5.3745999 8.0478673,5.870749 7.8537508,6.0745351 7.3807026,6.0902576 7.356659,5.7416533 7.3180872,5.3898497 7.7775126,5.3367024 7.988168,5.1481226 8.6166346,4.7494112 9.2190045,4.2868474 9.7416509,3.7686989 10.118463,3.5752325 10.519279,3.4407873 10.909854,3.2798859 11.032709,2.9734982 10.876383,2.692916 10.531667,2.6532394 10.262254,2.6148763 10.111915,2.9301825 9.9500382,3.0909054 9.7304154,3.3093587 9.5186991,3.1178974 9.2855468,3.2280267 8.8574955,3.4375841 8.3837298,3.4256853 7.9195409,3.4601841 7.4051036,3.7788468 6.8211617,3.9106273 6.2285946,3.979283 5.9093319,4.0429598 5.527205,3.8688138 5.2870828,4.1567661 4.990983,4.3486095 4.8331036,4.7372198 4.5151542,4.8772962 4.1493456,4.8539994 4.1557614,4.279866 3.9793649,3.996684 3.8886346,3.7514297 3.7765457,3.5324839 3.4811574,3.539294 3.0510916,3.4123139 2.5300688,3.6811521 2.478035,4.1490704 2.409477,4.4427039 2.512165,4.7174732 2.6689043,4.9641385 2.5671016,5.2162188 2.8011467,5.5595009 3.0778734,5.5226224 c 0.29421,0.1012065 0.4531764,0.3975573 0.6816156,0.5936658 0.1573818,0.6332073 0.00489,1.3174343 0.2584032,1.9359273 0.1144505,0.480664 0.5598209,0.762928 0.943696,1.025942 0.2430563,0.192905 0.5636308,0.356135 0.8704375,0.272113 0.1835915,-0.152875 0.3500076,-0.322333 0.609016,-0.315658 0.2533727,0.0076 0.6250756,-0.09778 0.5839254,-0.414949 -0.081198,-0.241359 0.3819797,-0.399684 0.4145749,-0.272235 0.00868,0.580841 0.036842,1.1761 -0.00137,1.7487825 -0.1896049,0.281138 -0.3067721,0.587134 -0.3234214,0.92762 -0.034278,0.647616 0.00187,1.30418 0.036705,1.953108 0.043305,0.490428 0.060391,0.986646 0.029271,1.477043 -0.1298572,0.684063 -0.7880371,0.877058 -1.3845657,1.008552 -0.13564,0.0691 -0.3023153,0.08184 -0.3421396,0.254376 z"
       id="path2844" />
  </g>
</svg>
